<svg width="26" height="26" viewBox="0 0 26 26" fill="none" xmlns="http://www.w3.org/2000/svg">
<path d="M20.6708 15.6504C19.4395 15.6504 18.4409 16.649 18.4409 17.8807C18.4409 19.112 19.4395 20.1106 20.6708 20.1106C21.9026 20.1106 22.9011 19.112 22.9011 17.8807C22.9007 16.649 21.9022 15.6504 20.6708 15.6504ZM20.6708 18.8265C20.1484 18.8265 19.7251 18.4027 19.7251 17.8807C19.7251 17.3583 20.1488 16.9345 20.6708 16.9345C21.1933 16.9345 21.617 17.3583 21.617 17.8807C21.617 18.4031 21.1933 18.8265 20.6708 18.8265Z" fill="#EA5C46"/>
<path d="M7.64885 15.6504C6.4171 15.6504 5.41895 16.649 5.41895 17.8807C5.41895 19.112 6.4171 20.1106 7.64885 20.1106C8.8806 20.1106 9.87876 19.112 9.87876 17.8807C9.87876 16.649 8.8806 15.6504 7.64885 15.6504ZM7.64885 18.8265C7.12641 18.8265 6.7031 18.4027 6.7031 17.8807C6.7031 17.3583 7.12682 16.9345 7.64885 16.9345C8.17129 16.9345 8.59501 17.3583 8.59501 17.8807C8.59501 18.4031 8.17129 18.8265 7.64885 18.8265Z" fill="#EA5C46"/>
<path d="M24.7983 14.7578H24.3522C23.8594 14.7578 23.4601 14.3585 23.4601 13.8657V12.974H24.3522H24.7983H25.6904C25.6904 12.2838 25.2976 11.6866 24.7243 11.3896C24.7637 11.2808 24.7743 11.1625 24.7451 11.0472L23.7908 7.228C23.5941 6.44069 22.8893 5.89062 22.0776 5.89062H18.2869C17.9615 5.89062 17.6982 6.15388 17.6982 6.47928V11.1893C17.6982 11.5148 17.9615 11.778 18.2869 11.778H18.5546V15.6634C19.1055 15.1369 19.8501 14.8111 20.6708 14.8111C22.2105 14.8111 23.4853 15.9526 23.7026 17.433H25.2443C25.4909 17.433 25.6904 17.2335 25.6904 16.9869V14.757H24.7983V14.7578ZM18.8751 10.6011V7.06834H22.078C22.349 7.06834 22.5842 7.25684 22.6431 7.51603L23.4203 10.6011H18.8751Z" fill="#EA5C46"/>
<path d="M16.8606 11.1899V6.47945C16.8606 6.27186 16.9057 6.07564 16.9861 5.89648H2.74382C2.49763 5.89648 2.29654 6.09798 2.29654 6.34377V7.5353H3.42429C3.70948 7.5353 3.97395 7.7303 4.01945 8.01142C4.07795 8.37014 3.80251 8.68011 3.45476 8.68011H2.01095C1.62013 8.68011 1.30285 8.99698 1.30285 9.3882C1.30285 9.77942 1.61973 10.0963 2.01095 10.0963H2.8531C3.13829 10.0963 3.40276 10.2913 3.44826 10.5724C3.50676 10.9311 3.23132 11.2411 2.88357 11.2411H1.01766C0.626852 11.2411 0.30957 11.558 0.30957 11.9492C0.30957 12.34 0.626445 12.6573 1.01766 12.6573H3.6071C3.89229 12.6573 4.15635 12.8523 4.20226 13.1334C4.26076 13.4921 3.98532 13.8021 3.63757 13.8021H2.29654V16.9871C2.29654 17.2341 2.49682 17.4344 2.74382 17.4344H4.61745C4.76329 16.4391 5.38648 15.5977 6.2461 15.1537C6.66657 14.9343 7.1427 14.812 7.64888 14.812C8.15345 14.812 8.63079 14.9343 9.05166 15.1537C9.91291 15.5977 10.5349 16.4391 10.6803 17.4344H17.717V12.4968C17.2124 12.2775 16.8606 11.7733 16.8606 11.1899Z" fill="#EA5C46"/>
</svg>
